# xmcd CD database file
#
# Track frame offsets:
#	150
#	14120
#	32047
#	43987
#	59972
#	73772
#	88127
#	99142
#	116365
#	134530
#	148037
#	168017
#	183087
#	197882
#	216045
#	234930
#	252602
#
# Disc length: 3609 seconds
#
# Revision: 0
# Processed by: cddbd v1.4PL0 Copyright (c) Steve Scherf et al.
# Submitted via: CDex 1.40Beta8
#
DISCID=fe0e1711
DTITLE=Coalrangers - Coast To Coast
DYEAR=1995
DGENRE=Blues
TTITLE0=36 Ford V8
TTITLE1=Positive blues
TTITLE2=Money is a medicine
TTITLE3=The drifter
TTITLE4=Radio rodeo
TTITLE5=Catch the wind
TTITLE6=West coast bound
TTITLE7=Reggae Street
TTITLE8=Living to stay away
TTITLE9=How sweet it is
TTITLE10=Rocket for emergency
TTITLE11=Cowboy dance
TTITLE12=Sallys waltz
TTITLE13=Backfoot shuffle
TTITLE14=House of blue lights
TTITLE15=Makin it work
TTITLE16=Now and then
EXTD=YEAR: 1995 ID3G: 0
EXTT0=
EXTT1=
EXTT2=
EXTT3=
EXTT4=
EXTT5=
EXTT6=
EXTT7=
EXTT8=
EXTT9=
EXTT10=
EXTT11=
EXTT12=
EXTT13=
EXTT14=
EXTT15=
EXTT16=
PLAYORDER=
